<svg xmlns="http://www.w3.org/2000/svg" width="27.952" height="25.824" viewBox="0 0 27.952 25.824">
    <path d="m185.878 198.888-13.342-13.53a.667.667 0 0 0-.917 0l-13.342 13.53a.6.6 0 0 0-.125.667.639.639 0 0 0 .585.374h3.177v10.455a.626.626 0 0 0 .635.615h6.351a.626.626 0 0 0 .635-.615v-6.445a.626.626 0 0 1 .635-.615h3.812a.626.626 0 0 1 .635.615v6.445a.626.626 0 0 0 .635.615h6.353a.626.626 0 0 0 .635-.615v-10.456h3.177a.639.639 0 0 0 .585-.374.608.608 0 0 0-.124-.666z" transform="translate(-158.102 -185.175)" style="fill:#656565"/>
</svg>
