<svg xmlns="http://www.w3.org/2000/svg" xmlns:xlink="http://www.w3.org/1999/xlink" width="30" height="25" viewBox="0 0 30 25">
  <defs>
    <clipPath id="clip-path">
      <rect id="사각형_17357" data-name="사각형 17357" width="30" height="25" transform="translate(0 0)" fill="#656565"/>
    </clipPath>
  </defs>
  <g id="그룹_4981" data-name="그룹 4981" transform="translate(0 0)">
    <g id="그룹_4980" data-name="그룹 4980" clip-path="url(#clip-path)">
      <path id="패스_2799" data-name="패스 2799" d="M8.928,25a6.245,6.245,0,0,1-4.317-1.733,6.028,6.028,0,0,1-1.868-4.33V14.26h3v4.672a3.016,3.016,0,0,0,.934,2.161A3.373,3.373,0,0,0,8.992,22H19.91a3.273,3.273,0,0,0,2.335-.906,3.019,3.019,0,0,0,.934-2.166V14.26h3v4.672a6.034,6.034,0,0,1-1.867,4.335A6.23,6.23,0,0,1,19.891,25H8.928" fill="#656565"/>
      <path id="패스_2800" data-name="패스 2800" d="M26.179,10.738h-3V6.066A3.016,3.016,0,0,0,22.245,3.9,3.247,3.247,0,0,0,19.932,3H9.012a3.418,3.418,0,0,0-2.335.9,3.019,3.019,0,0,0-.934,2.166v4.667h-3V6.066A6.029,6.029,0,0,1,4.611,1.731,6.425,6.425,0,0,1,9.033,0H19.91a6.331,6.331,0,0,1,4.4,1.731,6.029,6.029,0,0,1,1.867,4.33Z" fill="#656565"/>
      <rect id="사각형_17356" data-name="사각형 17356" width="30" height="3" transform="translate(0 9.293)" fill="#656565"/>
    </g>
  </g>
</svg>
